<svg width="33" height="33" viewBox="0 0 33 33" fill="none" xmlns="http://www.w3.org/2000/svg">
<rect width="33" height="33" rx="9" fill="#58555A"/>
<path d="M16.32 22.976C15.92 23.016 15.496 23.128 15.048 23.312C14.608 23.488 14.116 23.716 13.572 23.996C13.028 24.276 12.628 24.468 12.372 24.572C12.756 24.78 13.312 25.012 14.04 25.268C14.768 25.516 15.36 25.736 15.816 25.928C16.272 26.112 16.5 26.28 16.5 26.432C16.5 26.68 16.368 26.952 16.104 27.248C15.848 27.536 15.572 27.756 15.276 27.908C15.02 27.636 14.664 27.38 14.208 27.14C13.752 26.9 13.176 26.616 12.48 26.288C11.792 25.96 11.296 25.716 10.992 25.556C10.688 25.396 10.488 25.176 10.392 24.896C10.296 24.616 10.244 24.268 10.236 23.852C10.612 23.828 11.076 23.672 11.628 23.384C12.18 23.096 12.688 22.784 13.152 22.448C14.376 21.568 15.14 21.128 15.444 21.128C15.684 21.128 15.888 21.324 16.056 21.716C16.232 22.108 16.32 22.528 16.32 22.976ZM19.9728 28.724C19.7328 29.588 19.2888 30.02 18.6408 30.02C18.2488 30.02 17.8888 29.892 17.5608 29.636C17.8888 29.332 18.2208 28.588 18.5568 27.404C18.9008 26.212 19.2968 24.664 19.7448 22.76C20.1928 20.856 20.4328 19.848 20.4648 19.736C20.5928 19.224 20.9088 18.968 21.4128 18.968C21.9248 18.968 22.3888 19.156 22.8048 19.532C22.4208 20.1 22.0928 20.86 21.8208 21.812C21.5568 22.756 21.2408 23.94 20.8728 25.364C20.5048 26.788 20.2048 27.908 19.9728 28.724ZM23.9863 26.108C24.3863 26.068 24.8063 25.96 25.2463 25.784C25.6943 25.6 26.1903 25.368 26.7343 25.088C27.2783 24.808 27.6783 24.616 27.9343 24.512C27.5503 24.304 26.9943 24.076 26.2663 23.828C25.5383 23.572 24.9463 23.352 24.4903 23.168C24.0343 22.976 23.8063 22.804 23.8063 22.652C23.8063 22.404 23.9343 22.136 24.1903 21.848C24.4543 21.552 24.7343 21.328 25.0303 21.176C25.2863 21.448 25.6423 21.704 26.0983 21.944C26.5543 22.184 27.1263 22.468 27.8143 22.796C28.5103 23.124 29.0103 23.368 29.3143 23.528C29.6183 23.688 29.8183 23.908 29.9143 24.188C30.0103 24.468 30.0623 24.816 30.0703 25.232C29.6943 25.256 29.2303 25.412 28.6783 25.7C28.1263 25.988 27.6183 26.296 27.1543 26.624C25.9303 27.512 25.1663 27.956 24.8623 27.956C24.6223 27.956 24.4143 27.76 24.2383 27.368C24.0703 26.976 23.9863 26.556 23.9863 26.108Z" fill="white"/>
</svg>
